<svg width="95" height="93" viewBox="0 0 95 93" fill="none" xmlns="http://www.w3.org/2000/svg">
<path d="M15.4668 88.8357C15.6075 85.3217 16.7372 77.6719 17.3127 72.5759C17.6744 69.3733 20.2926 66.2778 21.8551 65.1218C22.8867 64.3585 23.9845 62.5933 25.4041 61.4396C26.802 60.3036 28.3925 63.496 29.5308 65.3405C30.669 67.1851 32.0844 68.7187 33.651 70.4066C34.9615 71.8185 35.4948 73.7848 36.3538 75.5487C36.923 77.7778 37.49 79.6154 37.9887 82.5238C38.0612 84.0506 38.0612 86.6343 37.6349 89.2963" stroke="white" stroke-width="2" stroke-linecap="round"/>
<path d="M22.6437 38.3375C22.7495 39.6198 23.0953 40.6989 23.4447 42.1418C25.1787 41.7189 27.1092 40.7909 33.5572 37.345C35.0903 36.5257 35.4948 36.1844 35.7826 35.7998C37.7285 33.1993 36.0746 27.5904 35.0813 25.7459C34.0494 23.8297 32.5277 22.3677 31.1742 20.8318C29.9021 19.3883 27.8383 18.9873 26.0606 18.3724C24.5186 17.8391 23.1554 17.2364 21.8439 16.4093C21.7808 16.4228 21.7184 16.4362 21.6568 16.4496C20.2005 16.7655 18.8815 16.2239 18.031 15.6114C17.8005 15.4453 17.5717 15.2806 17.3758 14.9974C17.0838 14.9796 16.7828 14.9535 16.475 14.9183C15.1448 14.7658 14.9809 12.7802 14.8702 10.7605C14.5585 9.40125 14.395 7.61857 14.3285 5.26503C14.2809 3.57954 15.3218 2.71586 15.9592 1.94903C16.5525 1.23507 17.7347 1.1776 18.7984 1.02332C20.6491 0.754862 22.2792 2.85863 23.492 4.54656C23.6986 4.83403 23.7906 5.17107 23.8278 5.50664C24.416 6.06248 25.0146 6.48293 25.2698 7.30989C25.5533 8.2287 25.6982 9.30639 25.5575 10.4555C25.5117 10.8296 25.4191 11.186 25.2893 11.5262C25.1521 12.7524 24.359 13.9755 24.2083 14.9067C24.0447 15.9172 22.8672 16.1887 21.8439 16.4093C23.1554 17.2364 24.5186 17.8391 26.0606 18.3724C27.8383 18.9873 29.9021 19.3883 31.1742 20.8318C32.5277 22.3677 34.0494 23.8297 35.0813 25.7459C36.0746 27.5904 37.7285 33.1993 35.7826 35.7998C35.4948 36.1844 35.0903 36.5257 33.5572 37.345C27.1092 40.7909 25.1787 41.7189 23.4447 42.1418C23.2923 42.179 23.1413 42.2122 22.989 42.243C20.2841 42.7887 9.46574 46.1077 3.73472 42.3903C2.67321 41.7018 1.55002 41.2396 1.18325 40.159C0.972231 39.5372 0.905301 38.6039 1.18965 37.6996C2.25116 34.3237 2.80308 31.7365 4.88789 30.4159C6.9491 29.1103 9.38639 26.9064 13.6358 28.1984C17.1805 29.276 19.1554 30.3058 20.1604 32.272C21.2987 34.4987 22.4734 36.2739 22.6437 38.3375Z" fill="white"/>
<path d="M25.2719 59.3595C25.1312 58.291 24.5642 56.1448 24.2786 48.4167C24.0678 42.7138 22.859 40.9465 22.6437 38.3375C22.4734 36.2739 21.2987 34.4987 20.1604 32.272C19.1554 30.3058 17.1805 29.276 13.6358 28.1984C9.38639 26.9064 6.9491 29.1103 4.88789 30.4159C2.80308 31.7365 2.25116 34.3237 1.18965 37.6996C0.905301 38.6039 0.972231 39.5372 1.18325 40.159C1.55002 41.2396 2.67321 41.7018 3.73472 42.3903C9.46574 46.1077 20.2841 42.7887 22.989 42.243C24.8742 41.8626 26.5423 41.0939 33.5572 37.345C35.0903 36.5256 35.4948 36.1844 35.7826 35.7998C37.7285 33.1993 36.0746 27.5904 35.0813 25.7459C34.0494 23.8297 32.5277 22.3677 31.1742 20.8318C29.9021 19.3883 27.8383 18.9873 26.0606 18.3724C24.0221 17.6674 22.2962 16.8411 20.5889 15.5354C19.6481 14.8159 19.1629 13.7692 18.8794 12.8504C18.5959 11.9316 18.4509 9.48601 18.873 6.4924C19.0284 5.38984 20.1391 5.47458 20.785 5.62656C22.9013 6.12458 24.1294 8.2287 25.0566 10.0732C25.8885 11.7282 24.4193 13.6034 24.2082 14.9067C24.0346 15.9794 22.7183 16.2193 21.6568 16.4496C20.2005 16.7655 18.8815 16.2239 18.031 15.6114C17.6026 15.3028 17.1805 14.9989 16.9631 13.9304C16.3864 11.0962 17.0271 8.70307 17.5237 7.78426C17.9886 6.92414 18.4467 6.09172 19.3675 5.70716C20.3595 5.29286 21.4308 6.2391 22.2813 6.85164C23.1318 7.46418 23.7073 8.2333 23.9205 9.30409C24.0411 9.91004 23.993 10.6788 23.8523 11.2983C23.7116 11.9177 23.4302 12.3737 22.7226 12.6086C22.0149 12.8435 20.8894 12.8435 20.2393 12.6155C19.5892 12.3875 19.4485 11.9316 19.4464 11.3927C19.4418 10.2362 20.0112 9.16362 20.6486 8.32081C20.968 7.89837 21.4266 7.62998 21.7847 7.70136C22.1428 7.77275 22.4241 8.2287 22.5691 9.1475C22.714 10.0663 22.714 11.4342 22.4327 12.1388C22.1513 12.8435 21.5886 12.8435 21.158 12.6155C20.3025 12.1625 19.8748 11.0058 19.5892 10.087C19.4528 9.64824 19.8663 9.16823 20.2223 8.85735C20.5782 8.54648 21.0003 8.3945 21.4287 8.54418C21.8571 8.69386 22.2792 9.14981 22.4263 9.68865C22.7265 10.7886 22.0064 11.9177 21.369 12.6846C20.1365 14.1675 18.3145 14.2251 17.3212 13.9971C15.4846 13.5756 15.6117 10.5499 15.1129 8.32541C14.9285 7.50276 15.0405 6.26673 15.1811 5.4124C15.3218 4.55807 15.6032 4.10213 16.2405 3.86724C19.1361 2.8001 21.0003 5.1614 22.567 6.46707C23.9795 7.6443 23.5667 10.6788 23.0721 12.8365C22.8357 13.8682 21.8657 14.3771 21.0152 14.6834C20.1647 14.9896 18.4637 15.1462 16.475 14.9183C14.604 14.7038 15.0405 10.8631 14.6866 8.4014C14.4264 6.59073 15.0362 5.01863 15.8163 4.09982C16.5356 3.2527 17.1677 2.55927 18.1589 2.32899C20.5487 1.77377 22.2792 3.93633 23.6327 5.31569C24.2788 5.9741 24.9863 6.39108 25.2698 7.30989C25.5533 8.2287 25.6982 9.30639 25.5575 10.4555C25.2903 12.6385 23.4302 14.2159 21.8678 15.5262C20.4894 16.6821 18.4595 15.3028 16.8224 14.1537C15.1165 12.9563 14.4777 10.5499 14.3285 5.26503C14.2809 3.57954 15.3218 2.71586 15.9592 1.94903C16.5525 1.23507 17.7347 1.1776 18.7984 1.02332C20.6491 0.754862 22.2792 2.85863 23.492 4.54656C23.7861 4.95575 23.848 5.46537 23.8501 5.92823C23.8523 6.39108 23.7116 6.84703 22.9357 7.08192C22.1598 7.3168 20.753 7.3168 19.7469 7.46878C18.7408 7.62076 18.1781 7.92473 17.172 8.69846" stroke="white" stroke-width="2" stroke-linecap="round"/>
<path d="M19.8713 88.5335C19.948 88.7055 19.9392 88.9219 19.8673 89.146C19.8686 89.146 19.87 89.146 19.8713 89.146C20.0099 89.3049 19.8692 89.7609 19.5814 89.8323C19.5421 89.842 19.5003 89.8448 19.457 89.8413C19.2933 89.828 19.109 89.7251 18.9618 89.5729C18.8631 89.4709 18.7811 89.3469 18.7331 89.2128C18.5945 88.826 18.7352 88.37 19.023 88.2203C19.3107 88.0707 19.7328 88.2226 19.8713 88.5335Z" fill="white"/>
<path d="M14.6128 87.9141C14.6128 88.218 14.7535 88.8306 15.1777 89.6734C15.6325 90.5771 17.0214 90.6774 18.2982 90.5254C18.8851 90.4556 19.2937 90.0695 19.5814 89.6849C19.8692 89.3003 20.0099 88.8444 19.8713 88.5335C19.7328 88.2226 19.3107 88.0707 19.023 88.2203C18.7352 88.37 18.5945 88.826 18.7331 89.2128C18.8716 89.5997 19.2937 89.9037 19.5814 89.8323C19.8692 89.7609 20.0099 89.3049 19.8713 89.146C19.3107 89.1391 18.7352 89.7517 18.5221 90.0626C18.4496 89.9175 18.4496 89.1576 18.4496 88.3746" stroke="white" stroke-width="2" stroke-linecap="round"/>
<path d="M35.6496 87.7652C35.8439 87.8907 36.081 88.0395 36.3314 88.2051C36.1944 89.8158 36.0538 90.2432 35.7817 90.6068C35.494 90.9914 35.0719 91.2954 34.8609 90.5078C34.6499 87.8965 34.9619 84.7995 35.0058 85.2322C35.0762 85.9253 34.941 87.3078 35.6496 87.7652Z" fill="white"/>
<path d="M38.0603 89.7571C37.6383 88.9926 36.3594 88.2235 35.6496 87.7652C34.941 87.3078 35.0762 85.9253 35.0058 85.2322C34.9619 84.7995 34.6499 87.8965 34.8609 90.5078C35.0719 91.2954 35.494 90.9914 35.7817 90.6068C36.0695 90.2223 36.2102 89.7663 36.3551 87.9149" stroke="white" stroke-width="2" stroke-linecap="round"/>
<path d="M15.0398 53.8332C16.5916 53.8332 19.2986 53.6812 25.495 53.451C31.2664 53.2365 42.3833 53.3727 48.39 53.2967C54.3967 53.2207 54.9594 53.0687 55.7417 52.9904C56.524 52.9121 57.5088 52.9121 58.5234 52.9121" stroke="white" stroke-width="2" stroke-linecap="round"/>
<path d="M58.5244 52.91C58.6651 51.3856 59.2321 48.3137 59.5177 45.7046C59.7572 43.5169 61.2187 41.8659 61.8624 39.9454C62.034 39.4334 61.9349 38.7986 62.0052 38.7134C62.8697 37.6663 62.7875 45.799 62.504 49.7552C62.3308 52.1727 63.4952 54.2824 63.994 56.6612C64.5465 59.2962 65.0555 61.4947 65.6992 64.1061C65.8834 64.8531 65.7717 65.7871 65.9827 66.1809C66.1937 66.5747 66.6158 66.4227 66.8332 65.7364C67.967 62.1577 67.4769 57.0918 68.6088 50.9365C69.681 45.1056 70.4611 41.4146 70.9556 39.1003C71.7895 35.1979 74.4343 28.9796 74.7945 25.5185C74.9162 24.3499 75.1505 23.2871 75.2208 22.594C75.2647 22.1613 75.5768 29.6658 75.6471 39.3351C75.6967 46.1413 76.2845 51.5237 76.9218 52.3665C78.7645 54.8033 83.6682 53.0666 85.4459 52.4517C85.9447 52.2975 86.5074 52.1455 87.8524 52.0672C89.1974 51.9889 91.3076 51.9889 93.4818 52.4494" stroke="white" stroke-width="2" stroke-linecap="round"/>
</svg>
